<?xml version="1.0" encoding="UTF-8"?>
<svg width="14px" height="16px" viewBox="0 0 14 16" version="1.1" xmlns="http://www.w3.org/2000/svg" xmlns:xlink="http://www.w3.org/1999/xlink">
    <!-- Generator: Sketch 40.3 (33839) - http://www.bohemiancoding.com/sketch -->
    <title>calendar_hover</title>
    <desc>Created with Sketch.</desc>
    <defs></defs>
    <g id="Page-1" stroke="none" stroke-width="1" fill="none" fill-rule="evenodd">
        <g id="Artboard" transform="translate(-363.000000, -236.000000)" fill="#AFB2BB">
            <path d="M372,235.9999 L372,237.9999 L368,237.9999 L368,235.9999 L366,235.9999 L366,237.9999 L365,237.9999 L363,237.9999 L363,239.9989 L363,241.9989 L363,243.9989 L363,249.9999 L363,250.9989 L363,251.9999 L377,251.9999 L377,237.9999 L375,237.9999 L374,237.9999 L374,235.9999 L372,235.9999 Z M365,241.9999 L375,241.9999 L375,239.9989 L365,239.9989 L365,241.9999 Z M365,249.9999 L375,249.9999 L375,243.9989 L365,243.9989 L365,249.9999 Z" id="calendar_hover"></path>
        </g>
    </g>
</svg>