<?xml version="1.0" encoding="UTF-8"?>
<svg width="66px" height="16px" viewBox="0 0 66 16" version="1.1" xmlns="http://www.w3.org/2000/svg" xmlns:xlink="http://www.w3.org/1999/xlink">
    <!-- Generator: Sketch 40.3 (33839) - http://www.bohemiancoding.com/sketch -->
    <title>dividing_element</title>
    <desc>Created with Sketch.</desc>
    <defs></defs>
    <g id="Page-1" stroke="none" stroke-width="1" fill="none" fill-rule="evenodd">
        <g id="Artboard" transform="translate(-120.000000, -120.000000)" fill="#2C2C2C">
            <path d="M179.520277,135.9491 C179.636277,135.9491 185.534277,133.2881 184.898277,127.8091 C184.721277,125.8891 183.362277,123.8601 179.821277,122.0021 C172.094277,118.5981 160.000277,126.6191 155.129277,129.2911 C160.388277,131.5751 172.230277,137.2501 179.370277,129.5521 C171.813277,140.6321 156.247277,131.3561 152.920277,130.2371 C149.304277,131.5611 134.064277,140.4241 126.612277,129.5001 C133.707277,137.1481 145.444277,131.5971 150.755277,129.2841 C145.819277,126.5571 133.844277,118.6741 126.174277,122.0531 C122.633277,123.9121 121.274277,125.9411 121.098277,127.8611 C120.462277,133.3401 126.358277,136.0001 126.474277,136.0001 C122.792277,136.0001 114.368277,126.7211 125.723277,121.0031 C136.075277,116.8901 149.454277,127.3771 152.901277,128.4541 C152.906277,128.4531 152.911277,128.4521 152.915277,128.4501 C156.068277,127.6951 169.737277,116.7671 180.272277,120.9521 C191.629277,126.6691 183.204277,135.9491 179.520277,135.9491 M126.023277,123.7031 C133.011277,120.4701 141.502277,125.9521 141.502277,125.9521 C141.502277,125.9521 125.157277,119.2351 123.469277,129.7021 C123.324277,129.5231 122.270277,126.2201 126.023277,123.7031 M164.489277,125.9011 C164.489277,125.9011 172.982277,120.4181 179.971277,123.6511 C183.725277,126.1681 182.671277,129.4721 182.526277,129.6501 C180.838277,119.1841 164.489277,125.9011 164.489277,125.9011" id="dividing_element"></path>
        </g>
    </g>
</svg>