<?xml version="1.0" encoding="UTF-8"?>
<svg width="12px" height="7px" viewBox="0 0 12 7" version="1.1" xmlns="http://www.w3.org/2000/svg" xmlns:xlink="http://www.w3.org/1999/xlink">
    <!-- Generator: Sketch 40.3 (33839) - http://www.bohemiancoding.com/sketch -->
    <title>dropdown_hover</title>
    <desc>Created with Sketch.</desc>
    <defs></defs>
    <g id="Page-1" stroke="none" stroke-width="1" fill="none" fill-rule="evenodd">
        <g id="Artboard" transform="translate(-444.000000, -240.000000)" fill="#AFB2BB">
            <path d="M449.531958,246.788869 C449.660795,246.929623 449.816809,247 450,247 C450.183191,247 450.339205,246.929623 450.468042,246.788869 L455.806744,241.674484 C455.935581,241.552048 456,241.402617 456,241.226192 C456,241.050732 455.935581,240.901301 455.806744,240.778864 L455.201812,240.198495 C455.072974,240.075094 454.91696,240.009538 454.73377,240.000861 C454.550579,239.992184 454.394565,240.049064 454.265727,240.172465 L450,244.258189 L445.734273,240.172465 C445.605435,240.049064 445.449421,239.992184 445.26623,240.000861 C445.082033,240.009538 444.926019,240.075094 444.798188,240.198495 L444.19225,240.778864 C444.064419,240.901301 444,241.050732 444,241.226192 C444,241.402617 444.064419,241.552048 444.19225,241.674484 L449.531958,246.788869 Z" id="dropdown_hover"></path>
        </g>
    </g>
</svg>