<?xml version="1.0" encoding="UTF-8"?>
<svg width="12px" height="7px" viewBox="0 0 12 7" version="1.1" xmlns="http://www.w3.org/2000/svg" xmlns:xlink="http://www.w3.org/1999/xlink">
    <!-- Generator: Sketch 40.3 (33839) - http://www.bohemiancoding.com/sketch -->
    <title>dropdown_passive</title>
    <desc>Created with Sketch.</desc>
    <defs></defs>
    <g id="Page-1" stroke="none" stroke-width="1" fill="none" fill-rule="evenodd">
        <g id="Artboard" transform="translate(-201.000000, -240.000000)" fill="#3E3F46">
            <path d="M206.531958,246.788869 C206.660795,246.929623 206.816809,247 207,247 C207.183191,247 207.339205,246.929623 207.468042,246.788869 L212.806744,241.674484 C212.935581,241.552048 213,241.402617 213,241.226192 C213,241.050732 212.935581,240.901301 212.806744,240.778864 L212.201812,240.198495 C212.072974,240.075094 211.91696,240.009538 211.73377,240.000861 C211.550579,239.992184 211.394565,240.049064 211.265727,240.172465 L207,244.258189 L202.734273,240.172465 C202.605435,240.049064 202.449421,239.992184 202.26623,240.000861 C202.082033,240.009538 201.926019,240.075094 201.798188,240.198495 L201.19225,240.778864 C201.064419,240.901301 201,241.050732 201,241.226192 C201,241.402617 201.064419,241.552048 201.19225,241.674484 L206.531958,246.788869 Z" id="dropdown_passive"></path>
        </g>
    </g>
</svg>